<?xml version="1.0" encoding="UTF-8" standalone="no"?>
<svg
   xmlns:dc="http://purl.org/dc/elements/1.1/"
   xmlns:cc="http://creativecommons.org/ns#"
   xmlns:rdf="http://www.w3.org/1999/02/22-rdf-syntax-ns#"
   xmlns:svg="http://www.w3.org/2000/svg"
   xmlns="http://www.w3.org/2000/svg"
   xmlns:sodipodi="http://sodipodi.sourceforge.net/DTD/sodipodi-0.dtd"
   xmlns:inkscape="http://www.inkscape.org/namespaces/inkscape"
   height="17.49"
   viewBox="0 0 17.49 17.49"
   width="17.49"
   id="svg2"
   version="1.1"
   inkscape:version="0.91 r13725"
   sodipodi:docname="search.svg"
   style="fill:#000000"
   inkscape:export-filename="E:\My Documents\GitHub\data_validation_tool\icons\search.png"
   inkscape:export-xdpi="75"
   inkscape:export-ydpi="75">
  <metadata
     id="metadata12">
    <rdf:RDF>
      <cc:Work
         rdf:about="">
        <dc:format>image/svg+xml</dc:format>
        <dc:type
           rdf:resource="http://purl.org/dc/dcmitype/StillImage" />
        <dc:title />
      </cc:Work>
    </rdf:RDF>
  </metadata>
  <defs
     id="defs10" />
  <sodipodi:namedview
     pagecolor="#ffffff"
     bordercolor="#666666"
     borderopacity="1"
     objecttolerance="10"
     gridtolerance="10"
     guidetolerance="10"
     inkscape:pageopacity="0"
     inkscape:pageshadow="2"
     inkscape:window-width="1920"
     inkscape:window-height="1057"
     id="namedview8"
     showgrid="false"
     fit-margin-top="0"
     fit-margin-left="0"
     fit-margin-right="0"
     fit-margin-bottom="0"
     inkscape:zoom="9.8333333"
     inkscape:cx="-14.440678"
     inkscape:cy="8.49"
     inkscape:window-x="-8"
     inkscape:window-y="-8"
     inkscape:window-maximized="1"
     inkscape:current-layer="svg2" />
  <path
     d="m 12.5,11 -0.79,0 -0.28,-0.27 C 12.41,9.59 13,8.11 13,6.5 13,2.91 10.09,0 6.5,0 2.91,0 0,2.91 0,6.5 0,10.09 2.91,13 6.5,13 8.11,13 9.59,12.41 10.73,11.43 L 11,11.71 11,12.5 16,17.49 17.49,16 12.5,11 Z m -6,0 C 4.01,11 2,8.99 2,6.5 2,4.01 4.01,2 6.5,2 8.99,2 11,4.01 11,6.5 11,8.99 8.99,11 6.5,11 Z"
     id="path4"
     inkscape:connector-curvature="0" />
  <path
     d="m -3,-3 24,0 0,24 -24,0 z"
     id="path6"
     inkscape:connector-curvature="0"
     style="fill:none" />
</svg>
